<?xml version="1.0" encoding="UTF-8" standalone="no"?>
<!-- Created with Inkscape (http://www.inkscape.org/) -->

<svg
   width="192"
   height="192"
   viewBox="0 0 50.800001 50.8"
   version="1.1"
   id="svg1"
   xml:space="preserve"
   inkscape:version="1.3.2 (091e20ef0f, 2023-11-25, custom)"
   sodipodi:docname="smaller_logo.svg"
   inkscape:export-filename="assets/export_files/logo192.png"
   inkscape:export-xdpi="96"
   inkscape:export-ydpi="96"
   xmlns:inkscape="http://www.inkscape.org/namespaces/inkscape"
   xmlns:sodipodi="http://sodipodi.sourceforge.net/DTD/sodipodi-0.dtd"
   xmlns="http://www.w3.org/2000/svg"
   xmlns:svg="http://www.w3.org/2000/svg"><sodipodi:namedview
     id="namedview1"
     pagecolor="#ffffff"
     bordercolor="#000000"
     borderopacity="0.25"
     inkscape:showpageshadow="2"
     inkscape:pageopacity="0.0"
     inkscape:pagecheckerboard="0"
     inkscape:deskcolor="#d1d1d1"
     inkscape:document-units="mm"
     inkscape:zoom="1.0476431"
     inkscape:cx="3.8180942"
     inkscape:cy="153.67829"
     inkscape:window-width="1536"
     inkscape:window-height="792"
     inkscape:window-x="0"
     inkscape:window-y="0"
     inkscape:window-maximized="1"
     inkscape:current-layer="svg1" /><defs
     id="defs1"><inkscape:path-effect
       effect="fillet_chamfer"
       id="path-effect1"
       is_visible="true"
       lpeversion="1"
       nodesatellites_param="F,0,0,1,0,6.35,0,1 @ F,0,0,1,0,6.35,0,1 @ F,0,0,1,0,6.35,0,1 @ F,0,0,1,0,6.35,0,1"
       radius="24"
       unit="px"
       method="auto"
       mode="F"
       chamfer_steps="1"
       flexible="false"
       use_knot_distance="true"
       apply_no_radius="true"
       apply_with_radius="true"
       only_selected="false"
       hide_knots="false" /></defs><path
     style="fill:#ffffff;fill-opacity:0.989919;stroke:#fefefe;stroke-width:0;paint-order:markers stroke fill"
     id="rect1"
     width="50.799999"
     height="50.799999"
     x="0"
     y="0"
     inkscape:label="background"
     sodipodi:type="rect"
     ry="0"
     rx="0"
     d="m 6.35,0 h 38.099999 a 6.35,6.35 45 0 1 6.35,6.35 v 38.099999 a 6.35,6.35 135 0 1 -6.35,6.35 H 6.35 A 6.35,6.35 45 0 1 0,44.449999 V 6.35 A 6.35,6.35 135 0 1 6.35,0 Z"
     inkscape:path-effect="#path-effect1" /><path
     d="m 32.713257,14.742138 0.46016,1.717339 -1.71734,0.460161 0.46016,1.717339 -1.717341,0.46016 0.460254,1.71769 -1.717339,0.46016 -1.71769,0.460254 -0.460254,-1.71769 -1.71734,0.46016 0.460254,1.717689 -1.71734,0.46016 -0.460254,-1.71769 -1.71734,0.46016 0.460254,1.71769 -1.71734,0.46016 -0.460253,-1.71769 -1.71769,0.460254 0.460253,1.717689 -1.717339,0.46016 0.460159,1.71734 1.71734,-0.46016 0.46016,1.71734 0.46016,1.717341 -1.717339,0.460159 -1.717341,0.46016 -1.71734,0.46016 -1.71734,0.46016 0.46016,1.717339 1.71734,-0.460159 1.71734,-0.46016 1.71734,-0.460161 1.717339,-0.460159 1.717691,-0.460254 1.717339,-0.460159 1.71734,-0.460161 1.71734,-0.46016 1.71734,-0.460159 1.71769,-0.460253 -0.46016,-1.71734 -1.71769,0.460253 -0.46016,-1.71734 -0.460159,-1.71734 1.717689,-0.460254 1.71734,-0.460159 0.46016,1.71734 1.71734,-0.46016 0.46016,1.71734 1.71734,-0.46016 0.46016,1.71734 1.717339,-0.46016 -0.460159,-1.71734 -0.46016,-1.71734 -0.46016,-1.71734 -0.46016,-1.717339 -0.460253,-1.717691 -0.46016,-1.717339 -0.46016,-1.71734 z m -1.930807,13.402209 0.460253,1.717689 0.46016,1.71734 1.71734,-0.46016 -0.46016,-1.717339 -0.460254,-1.71769 z m 0.920413,3.435029 -1.71769,0.460254 -1.717339,0.460159 -1.71734,0.46016 -1.717341,0.46016 -1.717339,0.46016 -1.71769,0.460254 -1.71734,0.460159 0.46016,1.71734 1.71734,-0.460159 1.71769,-0.460254 1.71734,-0.46016 1.71734,-0.46016 1.71734,-0.46016 1.717339,-0.460159 1.71769,-0.460254 z m -12.022079,3.221306 -0.460159,-1.717339 -1.71734,0.46016 0.460159,1.717339 z m -2.300893,-8.587049 -1.71734,0.46016 0.46016,1.71734 1.71734,-0.46016 z m 3.43503,-0.920414 1.717339,-0.460159 0.46016,1.71734 0.460161,1.71734 -1.717341,0.46016 -0.460159,-1.717341 z m 3.43468,-0.920319 1.71734,-0.46016 0.46016,1.71734 0.46016,1.71734 -1.71734,0.46016 -0.46016,-1.71734 z"
     style="fill:#ffd359;stroke-width:0.699997"
     id="path1"
     inkscape:label="trumpet" /></svg>
